<svg aria-hidden="true" style="width:0;height:0;position:absolute;overflow:hidden" xmlns="http://www.w3.org/2000/svg"><defs><symbol id="icon-arrow-right" viewBox="0 0 32 32"><path stroke-linejoin="round" stroke-linecap="round" stroke-width="2.667" d="m12 24 8-8-8-8"/></symbol><symbol id="icon-heart-action" viewBox="0 0 32 32"><path fill="#4b48da" style="fill:var(--color1,#4b48da)" d="M9.334 4c-3.682 0-6.668 2.954-6.668 6.6 0 2.942 1.168 9.926 12.652 16.986a1.31 1.31 0 0 0 1.37-.003l-.006.003c11.484-7.06 12.652-14.044 12.652-16.986 0-3.646-2.986-6.6-6.668-6.6C18.986 4 16 8 16 8s-2.986-4-6.666-4z"/></symbol><symbol id="icon-heart-not-action" viewBox="0 0 32 32"><path fill="none" stroke="#4440f7" style="stroke:var(--color2,#4440f7)" stroke-linejoin="round" stroke-linecap="round" stroke-width="2" d="M9.334 4c-3.682 0-6.668 2.954-6.668 6.6 0 2.942 1.168 9.926 12.652 16.986a1.31 1.31 0 0 0 1.37-.003l-.006.003c11.484-7.06 12.652-14.044 12.652-16.986 0-3.646-2.986-6.6-6.668-6.6C18.986 4 16 8 16 8s-2.986-4-6.666-4z"/></symbol><symbol id="icon-search" viewBox="0 0 32 32"><path d="M13.464 23.726a10.158 10.158 0 0 0 6.303-2.183l-.022.017 5.64 5.64 1.814-1.814-5.64-5.638a10.132 10.132 0 0 0 2.166-6.285c-.007-5.665-4.598-10.255-10.262-10.262h-.001C7.796 3.207 3.205 7.798 3.198 13.463v.001c.006 5.666 4.598 10.258 10.263 10.264h.001zm0-17.96a7.705 7.705 0 0 1 7.696 7.695v.001a7.706 7.706 0 0 1-7.695 7.698h-.001a7.706 7.706 0 0 1-7.698-7.695v-.001a7.706 7.706 0 0 1 7.695-7.698h.001z"/></symbol><symbol id="icon-calendar" viewBox="0 0 32 32"><path d="M22.667 4H28c.736 0 1.333.597 1.333 1.333v21.334c0 .736-.597 1.333-1.333 1.333H4a1.333 1.333 0 0 1-1.333-1.333V5.333C2.667 4.597 3.264 4 4 4h5.333V1.333H12V4h8V1.333h2.667V4zm4 10.667H5.333v10.666h21.334V14.667zm-6.667-8h-8v2.666H9.333V6.667h-4V12h21.334V6.667h-4v2.666H20V6.667zM8 17.333h2.667V20H8v-2.667zm6.667 0h2.666V20h-2.666v-2.667zm6.666 0H24V20h-2.667v-2.667z"/></symbol><symbol id="icon-arrow-up" viewBox="0 0 32 32"><path d="M3.76 9.143 0 12.622l16 14.807 16-14.807-3.76-3.479L16 20.446 3.76 9.143z"/></symbol><symbol id="icon-arrow-down" viewBox="0 0 32 32"><path d="M3.76 25.143 0 21.664 16 6.857l16 14.807-3.76 3.479L16 13.84 3.76 25.143z"/></symbol><symbol id="icon-favorite" viewBox="0 0 32 32"><path fill="#4440f6" style="fill:var(--color3,#4440f6)" d="M32 16c0 8.837-7.163 16-16 16S0 24.837 0 16 7.163 0 16 0s16 7.163 16 16z"/><path fill="none" stroke="#f4f4f4" style="stroke:var(--color4,#f4f4f4)" stroke-linejoin="round" stroke-linecap="round" d="M22.63 10.457c-.747-.746-1.778-1.208-2.917-1.208s-2.17.462-2.917 1.208l-.795.795-.795-.795a4.126 4.126 0 0 0-5.835 5.835L16 22.922l6.63-6.629c.747-.747 1.208-1.778 1.208-2.918s-.462-2.171-1.208-2.918v0z"/></symbol><symbol id="icon-read" viewBox="0 0 32 32"><path fill="#4440f6" style="fill:var(--color3,#4440f6)" d="M32 16c0 8.837-7.163 16-16 16S0 24.837 0 16 7.163 0 16 0s16 7.163 16 16z"/><path fill="none" stroke="#f4f4f4" style="stroke:var(--color4,#f4f4f4)" stroke-linejoin="round" stroke-linecap="round" d="M8.5 9.25H13a3 3 0 0 1 3 3v10.5a2.25 2.25 0 0 0-2.25-2.25v0H8.5V9.25zm15 0H19a3 3 0 0 0-3 3v10.5a2.25 2.25 0 0 1 2.25-2.25v0h5.25V9.25z"/></symbol><symbol id="icon-home" viewBox="0 0 32 32"><path fill="#4440f6" style="fill:var(--color3,#4440f6)" d="M32 16c0 8.837-7.163 16-16 16S0 24.837 0 16 7.163 0 16 0s16 7.163 16 16z"/><path fill="none" stroke="#f4f4f4" style="stroke:var(--color4,#f4f4f4)" stroke-linejoin="round" stroke-linecap="round" d="M9.25 13.75 16 8.5l6.75 5.25V22a1.5 1.5 0 0 1-1.5 1.5v0h-10.5a1.5 1.5 0 0 1-1.5-1.5v0-8.25z"/><path fill="none" stroke="#f4f4f4" style="stroke:var(--color4,#f4f4f4)" stroke-linejoin="round" stroke-linecap="round" d="M13.75 23.5V16h4.5v7.5"/></symbol><symbol id="icon-burger-menu" viewBox="0 0 32 32"><path stroke-linejoin="round" stroke-linecap="round" stroke-width="2.667" d="M4 16h24M4 8h24M4 24h24"/></symbol><symbol id="icon-moon" viewBox="0 0 32 32"><path stroke-linejoin="round" stroke-linecap="round" stroke-width="2.286" d="M28.175 17.053c-.21 2.27-1.237 4.434-2.632 6.235-2.216 2.847-5.643 4.661-9.494 4.661-6.627 0-12-5.373-12-12 0-6.24 4.763-11.367 10.851-11.946l.048-.004a9.264 9.264 0 0 0-1.827 5.546 9.333 9.333 0 0 0 14.904 7.489l-.025.018h.174z"/></symbol><symbol id="icon-sun" viewBox="0 0 32 32"><path stroke-linejoin="round" stroke-linecap="round" stroke-width="2.286" d="M16 1.778v2.586m0 23.272v2.586M5.938 5.943l1.836 1.836m16.447 16.445 1.836 1.836M1.777 16h2.586m23.273 0h2.586M5.94 26.059l1.836-1.836M24.222 7.778l1.835-1.836M22.461 16a6.464 6.464 0 1 1-12.928 0 6.465 6.465 0 0 1 12.93 0z"/></symbol><symbol id="icon-close" viewBox="0 0 32 32"><path stroke-linejoin="round" stroke-linecap="round" stroke-width="2.667" d="M24 8 8 24M8 8l16 16"/></symbol></defs></svg>