<svg aria-hidden="true" style="width:0;height:0;position:absolute;overflow:hidden" xmlns="http://www.w3.org/2000/svg"><defs><symbol id="icon-arrow-right" viewBox="0 0 32 32"><path d="M12 25.333c-.4 0-.667-.133-.933-.4a1.29 1.29 0 0 1 0-1.867l7.067-7.067-7.067-7.067c-.533-.533-.533-1.333 0-1.867s1.333-.533 1.867 0l8 8a1.29 1.29 0 0 1 0 1.867l-8 8c-.267.267-.533.4-.933.4z"/></symbol><symbol id="icon-heart" viewBox="0 0 32 32"><path d="M9.334 4c-3.682 0-6.668 2.954-6.668 6.6 0 2.942 1.168 9.926 12.652 16.986a1.31 1.31 0 0 0 1.37-.003l-.006.003c11.484-7.06 12.652-14.044 12.652-16.986 0-3.646-2.986-6.6-6.668-6.6C18.986 4 16 8 16 8s-2.986-4-6.666-4z"/></symbol><symbol id="icon-search" viewBox="0 0 32 32"><path d="M13.464 23.726a10.158 10.158 0 0 0 6.303-2.183l-.022.017 5.64 5.64 1.814-1.814-5.64-5.638a10.132 10.132 0 0 0 2.166-6.285c-.007-5.665-4.598-10.255-10.262-10.262h-.001C7.796 3.207 3.205 7.798 3.198 13.463v.001c.006 5.666 4.598 10.258 10.263 10.264h.001zm0-17.96a7.705 7.705 0 0 1 7.696 7.695v.001a7.706 7.706 0 0 1-7.695 7.698h-.001a7.706 7.706 0 0 1-7.698-7.695v-.001a7.706 7.706 0 0 1 7.695-7.698h.001z"/></symbol><symbol id="icon-calendar" viewBox="0 0 32 32"><path d="M22.667 4H28c.736 0 1.333.597 1.333 1.333v21.334c0 .736-.597 1.333-1.333 1.333H4a1.333 1.333 0 0 1-1.333-1.333V5.333C2.667 4.597 3.264 4 4 4h5.333V1.333H12V4h8V1.333h2.667V4zm4 10.667H5.333v10.666h21.334V14.667zm-6.667-8h-8v2.666H9.333V6.667h-4V12h21.334V6.667h-4v2.666H20V6.667zM8 17.333h2.667V20H8v-2.667zm6.667 0h2.666V20h-2.666v-2.667zm6.666 0H24V20h-2.667v-2.667z"/></symbol><symbol id="icon-arrow-up" viewBox="0 0 32 32"><path d="M3.76 9.143 0 12.622l16 14.807 16-14.807-3.76-3.479L16 20.446 3.76 9.143z"/></symbol><symbol id="icon-carbon_location-filled" viewBox="0 0 32 32"><path d="M16 2A11.018 11.018 0 0 0 5 13a10.892 10.892 0 0 0 2.216 6.6s.3.395.349.452L16 30l8.439-9.953c.044-.053.345-.447.345-.447l.001-.003A10.89 10.89 0 0 0 27 13 11.018 11.018 0 0 0 16 2zm0 15a4.002 4.002 0 0 1-3.923-4.78 4.006 4.006 0 0 1 3.143-3.143 3.996 3.996 0 0 1 3.607 6.75A4.004 4.004 0 0 1 16 17z"/></symbol><symbol id="icon-arrow-down" viewBox="0 0 32 32"><path d="M3.76 25.143 0 21.664 16 6.857l16 14.807-3.76 3.479L16 13.84 3.76 25.143z"/></symbol><symbol id="icon-favorite" viewBox="0 0 32 32"><path fill="#4440f6" style="fill:var(--color3,#4440f6)" d="M32 16c0 8.837-7.163 16-16 16S0 24.837 0 16 7.163 0 16 0s16 7.163 16 16z"/><path fill="none" stroke="#f4f4f4" style="stroke:var(--color4,#f4f4f4)" stroke-linejoin="round" stroke-linecap="round" d="M22.63 10.457c-.747-.746-1.778-1.208-2.917-1.208s-2.17.462-2.917 1.208l-.795.795-.795-.795a4.126 4.126 0 0 0-5.835 5.835L16 22.922l6.63-6.629c.747-.747 1.208-1.778 1.208-2.918s-.462-2.171-1.208-2.918v0z"/></symbol><symbol id="icon-read" viewBox="0 0 32 32"><path fill="#4440f6" style="fill:var(--color3,#4440f6)" d="M32 16c0 8.837-7.163 16-16 16S0 24.837 0 16 7.163 0 16 0s16 7.163 16 16z"/><path fill="none" stroke="#f4f4f4" style="stroke:var(--color4,#f4f4f4)" stroke-linejoin="round" stroke-linecap="round" d="M8.5 9.25H13a3 3 0 0 1 3 3v10.5a2.25 2.25 0 0 0-2.25-2.25v0H8.5V9.25zm15 0H19a3 3 0 0 0-3 3v10.5a2.25 2.25 0 0 1 2.25-2.25v0h5.25V9.25z"/></symbol><symbol id="icon-home" viewBox="0 0 32 32"><path fill="#4440f6" style="fill:var(--color3,#4440f6)" d="M32 16c0 8.837-7.163 16-16 16S0 24.837 0 16 7.163 0 16 0s16 7.163 16 16z"/><path fill="none" stroke="#f4f4f4" style="stroke:var(--color4,#f4f4f4)" stroke-linejoin="round" stroke-linecap="round" d="M9.25 13.75 16 8.5l6.75 5.25V22a1.5 1.5 0 0 1-1.5 1.5v0h-10.5a1.5 1.5 0 0 1-1.5-1.5v0-8.25z"/><path fill="none" stroke="#f4f4f4" style="stroke:var(--color4,#f4f4f4)" stroke-linejoin="round" stroke-linecap="round" d="M13.75 23.5V16h4.5v7.5"/></symbol><symbol id="icon-moon" viewBox="0 0 32 32"><path d="M14.08 2.984a13.19 13.19 0 0 0-8.068 4.521l-.016.019a13.545 13.545 0 0 0-2.526 4.688l-.025.097a13.073 13.073 0 0 0-.504 3.637c0 1.37.206 2.691.588 3.935l-.025-.095a13.484 13.484 0 0 0 2.376 4.452l-.02-.026a18.644 18.644 0 0 0 1.766 1.781 13.012 13.012 0 0 0 8.422 3.07c1.372 0 2.695-.211 3.937-.603l-.093.025c3.093-.948 5.608-2.917 7.467-5.847 1.079-1.701 1.816-3.806 1.902-5.44.026-.492.018-.553-.099-.771a.858.858 0 0 0-.361-.362l-.005-.002c-.209-.111-.294-.125-.719-.11l-.482.018-.558.364c-.661.433-1.455.823-2.063 1.015a8.046 8.046 0 0 1-2.515.394 8.189 8.189 0 0 1-5.68-2.279l.003.003c-1.755-1.656-2.712-4.172-2.499-6.571.134-1.512.565-2.72 1.442-4.038.267-.401.299-.478.318-.782.024-.39-.049-.655-.247-.89-.28-.332-.628-.375-1.717-.207zm-1.347 2.683a40.52 40.52 0 0 0-.215.652 10.366 10.366 0 0 0-.512 3.253c0 .363.018.722.054 1.076l-.004-.045c.542 4.902 4.285 8.712 9.152 9.315a10.345 10.345 0 0 0 4.776-.538l-.072.023c.334-.116.616-.201.625-.192a4.058 4.058 0 0 1-.221.578l.011-.025c-.701 1.649-1.912 3.34-3.122 4.363-1.813 1.53-3.803 2.391-6.11 2.645-2.347.258-5.022-.416-7.052-1.775a10.455 10.455 0 0 1-2.995-2.971l-.024-.038a10.675 10.675 0 0 1-1.844-6.027c0-1.255.215-2.459.609-3.579l-.023.075C6.819 9.41 9.104 7.025 12.009 5.86l.073-.026c.643-.256.689-.268.652-.169z"/></symbol><symbol id="icon-sun" viewBox="0 0 32 32"><path d="M15.511.724a.851.851 0 0 0-.573.591l-.001.006c-.034.117-.055.859-.055 1.8 0 1.438.011 1.621.099 1.813.172.375.489.553.994.556.568.005.969-.241 1.086-.666.076-.274.079-3.23.003-3.503-.155-.561-.829-.82-1.553-.597zM5.44 4.92c-.591.357-.832.943-.585 1.431.133.261 1.886 2.068 2.312 2.383.488.358 1 .286 1.443-.203.358-.398.442-.788.247-1.161-.149-.288-2.33-2.441-2.575-2.542-.303-.126-.52-.102-.841.091zm20.222-.067c-.251.114-1.981 1.78-2.366 2.281-.387.501-.335.997.152 1.46.309.294.521.381.85.354.375-.03.603-.212 1.798-1.422.968-.981 1.154-1.237 1.155-1.595.003-.498-.684-1.186-1.182-1.182-.15.012-.288.05-.414.108l.007-.003zm-10.889 3.65c-3.525.631-6.097 3.453-6.338 6.95-.264 3.831 2.283 7.186 6.071 7.997.64.137 2.344.137 2.974.002 2.848-.614 5.088-2.709 5.833-5.451.34-1.251.347-2.787.018-3.953a7.613 7.613 0 0 0-1.981-3.413 7.78 7.78 0 0 0-3.753-2.065l-.052-.01c-.544-.12-2.223-.155-2.773-.056zm2.4 2.298a5.472 5.472 0 0 1 3.877 3.502l.012.038c.367 1.082.328 2.533-.099 3.579a5.442 5.442 0 0 1-2.481 2.78l-.029.014a4.819 4.819 0 0 1-1.649.543l-.026.003a5.329 5.329 0 0 1-5.258-2.385l-.013-.021a5.916 5.916 0 0 1-.707-1.665l-.009-.042c-.136-.587-.136-1.708 0-2.293a5.44 5.44 0 0 1 4.42-4.13l.031-.004c.416-.066 1.51-.02 1.931.081zM1.262 14.958a.797.797 0 0 0-.541.577l-.001.005c-.213.718.044 1.37.602 1.524.273.076 3.229.073 3.503-.003.418-.116.669-.515.669-1.061s-.251-.945-.669-1.061c-.326-.091-3.301-.075-3.563.018zm25.805.021c-.378.175-.555.491-.558.995-.005.578.242.972.683 1.091.154.041.754.055 1.864.044 1.434-.014 1.658-.027 1.806-.108.381-.207.571-.757.456-1.307-.073-.355-.189-.53-.443-.68-.169-.101-.29-.108-1.886-.12-1.571-.014-1.725-.006-1.92.085zM7.36 23.131c-.262.123-2.359 2.226-2.501 2.507-.19.378-.139.684.19 1.123.174.232.634.491.87.491.389-.002.623-.177 1.739-1.295.638-.638 1.122-1.167 1.189-1.301.203-.404.128-.782-.238-1.187-.37-.408-.835-.533-1.25-.337zm16.454-.003c-.281.17-.51.399-.673.672l-.005.009c-.163.317-.116.69.13 1.024.299.405 2.123 2.178 2.373 2.306.407.207.815.11 1.213-.288.376-.375.48-.745.32-1.132-.101-.245-2.254-2.426-2.542-2.575a.952.952 0 0 0-.424-.098.955.955 0 0 0-.397.085l.006-.002zm-8.312 3.456a.85.85 0 0 0-.542.526l-.002.006c-.072.187-.081.471-.067 1.899.015 1.566.023 1.69.123 1.859.149.254.325.37.68.443.55.116 1.1-.075 1.307-.456.081-.148.094-.372.108-1.806.018-1.812-.003-1.987-.277-2.261-.277-.277-.876-.372-1.33-.21z"/></symbol><symbol id="icon-close_menu" viewBox="0 0 32 32"><path d="M23.734 10.304 22.23 8.8l-5.963 5.962L10.305 8.8l-1.504 1.504 5.962 5.962-5.962 5.963 1.504 1.504 5.962-5.963 5.963 5.963 1.504-1.504-5.963-5.963 5.963-5.962z"/></symbol><symbol id="icon-menu_btn" viewBox="0 0 32 32"><path d="M6.4 11.734V9.6h19.2v2.134H6.4zm0 5.332h19.2v-2.133H6.4v2.133zm0 5.334h19.2v-2.134H6.4V22.4z"/></symbol><symbol id="icon-heart" viewBox="0 0 32 32"><path d="M9.334 4c-3.682 0-6.668 2.954-6.668 6.6 0 2.942 1.168 9.926 12.652 16.986a1.31 1.31 0 0 0 1.37-.003l-.006.003c11.484-7.06 12.652-14.044 12.652-16.986 0-3.646-2.986-6.6-6.668-6.6C18.986 4 16 8 16 8s-2.986-4-6.666-4z"/></symbol><symbol id="icon-add" viewBox="0 0 32 32"><path fill="none" stroke="#4440f7" style="stroke:var(--color1,#4440f7)" stroke-linejoin="round" stroke-linecap="round" stroke-width="2" d="M9.333 4c-3.681 0-6.667 2.955-6.667 6.6 0 2.943 1.167 9.927 12.651 16.987a1.316 1.316 0 0 0 1.366 0c11.484-7.06 12.651-14.044 12.651-16.987 0-3.645-2.985-6.6-6.667-6.6S16 8 16 8s-2.985-4-6.667-4z"/></symbol></defs></svg>