<svg aria-hidden="true" style="position: absolute; width: 0; height: 0; overflow: hidden;" version="1.1" xmlns="http://www.w3.org/2000/svg" xmlns:xlink="http://www.w3.org/1999/xlink">
<defs>
<symbol id="icon-arrow-right" viewBox="0 0 32 32">
<path d="M12 25.333c-0.4 0-0.667-0.133-0.933-0.4-0.533-0.533-0.533-1.333 0-1.867l7.067-7.067-7.067-7.067c-0.533-0.533-0.533-1.333 0-1.867s1.333-0.533 1.867 0l8 8c0.533 0.533 0.533 1.333 0 1.867l-8 8c-0.267 0.267-0.533 0.4-0.933 0.4z"></path>
</symbol>
<symbol id="icon-heart" viewBox="0 0 32 32">
<path d="M9.334 4c-3.682 0-6.668 2.954-6.668 6.6 0 2.942 1.168 9.926 12.652 16.986 0.194 0.12 0.43 0.191 0.682 0.191s0.488-0.071 0.688-0.194l-0.006 0.003c11.484-7.060 12.652-14.044 12.652-16.986 0-3.646-2.986-6.6-6.668-6.6-3.68 0-6.666 4-6.666 4s-2.986-4-6.666-4z"></path>
</symbol>
<symbol id="icon-search" viewBox="0 0 32 32">
<path d="M13.464 23.726c2.38-0.001 4.569-0.817 6.303-2.183l-0.022 0.017 5.64 5.64 1.814-1.814-5.64-5.638c1.351-1.714 2.166-3.904 2.166-6.285v-0c-0.007-5.665-4.598-10.255-10.262-10.262h-0.001c-5.666 0.006-10.257 4.597-10.264 10.262v0.001c0.006 5.666 4.598 10.258 10.263 10.264h0.001zM13.464 5.766c4.248 0.005 7.691 3.448 7.696 7.695v0.001c-0.005 4.249-3.447 7.692-7.695 7.698h-0.001c-4.249-0.005-7.692-3.447-7.698-7.695v-0.001c0.005-4.249 3.447-7.692 7.695-7.698h0.001z"></path>
</symbol>
<symbol id="icon-calendar" viewBox="0 0 32 32">
<path d="M22.667 4h5.333c0.736 0 1.333 0.597 1.333 1.333v0 21.334c0 0.736-0.597 1.333-1.333 1.333v0h-24c-0.736 0-1.333-0.597-1.333-1.333v0-21.334c0-0.736 0.597-1.333 1.333-1.333v0h5.333v-2.667h2.667v2.667h8v-2.667h2.667v2.667zM26.667 14.667h-21.334v10.666h21.334v-10.666zM20 6.667h-8v2.666h-2.667v-2.666h-4v5.333h21.334v-5.333h-4v2.666h-2.667v-2.666zM8 17.333h2.667v2.667h-2.667v-2.667zM14.667 17.333h2.666v2.667h-2.666v-2.667zM21.333 17.333h2.667v2.667h-2.667v-2.667z"></path>
</symbol>
<symbol id="icon-arrow-up" viewBox="0 0 32 32">
<path d="M3.76 9.143l-3.76 3.479 16 14.807 16-14.807-3.76-3.479-12.24 11.303-12.24-11.303z"></path>
</symbol>
<symbol id="icon-arrow-down" viewBox="0 0 32 32">
<path d="M3.76 25.143l-3.76-3.479 16-14.807 16 14.807-3.76 3.479-12.24-11.303-12.24 11.303z"></path>
</symbol>
<symbol id="icon-favorite" viewBox="0 0 32 32">
<path fill="#4440f6" style="fill: var(--color3, #4440f6)" d="M32 16c0 8.837-7.163 16-16 16s-16-7.163-16-16c0-8.837 7.163-16 16-16s16 7.163 16 16z"></path>
<path fill="none" stroke="#f4f4f4" style="stroke: var(--color4, #f4f4f4)" stroke-linejoin="round" stroke-linecap="round" stroke-miterlimit="4" stroke-width="1" d="M22.63 10.457c-0.747-0.746-1.778-1.208-2.917-1.208s-2.17 0.462-2.917 1.208l-0.795 0.795-0.795-0.795c-0.745-0.74-1.772-1.197-2.906-1.197-2.279 0-4.126 1.847-4.126 4.126 0 1.134 0.457 2.161 1.197 2.906l6.629 6.63 6.63-6.629c0.747-0.747 1.208-1.778 1.208-2.918s-0.462-2.171-1.208-2.918v0z"></path>
</symbol>
<symbol id="icon-read" viewBox="0 0 32 32">
<path fill="#4440f6" style="fill: var(--color3, #4440f6)" d="M32 16c0 8.837-7.163 16-16 16s-16-7.163-16-16c0-8.837 7.163-16 16-16s16 7.163 16 16z"></path>
<path fill="none" stroke="#f4f4f4" style="stroke: var(--color4, #f4f4f4)" stroke-linejoin="round" stroke-linecap="round" stroke-miterlimit="4" stroke-width="1" d="M8.5 9.25h4.5c1.657 0 3 1.343 3 3v0 10.5c0-1.243-1.007-2.25-2.25-2.25v0h-5.25v-11.25zM23.5 9.25h-4.5c-1.657 0-3 1.343-3 3v0 10.5c0-1.243 1.007-2.25 2.25-2.25v0h5.25v-11.25z"></path>
</symbol>
<symbol id="icon-home" viewBox="0 0 32 32">
<path fill="#4440f6" style="fill: var(--color3, #4440f6)" d="M32 16c0 8.837-7.163 16-16 16s-16-7.163-16-16c0-8.837 7.163-16 16-16s16 7.163 16 16z"></path>
<path fill="none" stroke="#f4f4f4" style="stroke: var(--color4, #f4f4f4)" stroke-linejoin="round" stroke-linecap="round" stroke-miterlimit="4" stroke-width="1" d="M9.25 13.75l6.75-5.25 6.75 5.25v8.25c0 0.828-0.672 1.5-1.5 1.5v0h-10.5c-0.828 0-1.5-0.672-1.5-1.5v0-8.25z"></path>
<path fill="none" stroke="#f4f4f4" style="stroke: var(--color4, #f4f4f4)" stroke-linejoin="round" stroke-linecap="round" stroke-miterlimit="4" stroke-width="1" d="M13.75 23.5v-7.5h4.5v7.5"></path>
</symbol>
<symbol id="icon-moon" viewBox="0 0 32 32">
<path d="M14.080 2.984c-3.265 0.513-6.074 2.162-8.068 4.521l-0.016 0.019c-1.119 1.347-1.993 2.943-2.526 4.688l-0.025 0.097c-0.32 1.090-0.504 2.342-0.504 3.637 0 1.37 0.206 2.691 0.588 3.935l-0.025-0.095c0.538 1.699 1.342 3.172 2.376 4.452l-0.020-0.026c0.386 0.469 1.274 1.365 1.766 1.781 2.259 1.91 5.205 3.070 8.422 3.070 1.372 0 2.695-0.211 3.937-0.603l-0.093 0.025c3.093-0.948 5.608-2.917 7.467-5.847 1.079-1.701 1.816-3.806 1.902-5.44 0.026-0.492 0.018-0.553-0.099-0.771-0.083-0.157-0.208-0.282-0.361-0.362l-0.005-0.002c-0.209-0.111-0.294-0.125-0.719-0.11l-0.482 0.018-0.558 0.364c-0.661 0.433-1.455 0.823-2.063 1.015-0.751 0.25-1.616 0.394-2.515 0.394-2.204 0-4.204-0.867-5.68-2.279l0.003 0.003c-1.755-1.656-2.712-4.172-2.499-6.571 0.134-1.512 0.565-2.72 1.442-4.038 0.267-0.401 0.299-0.478 0.318-0.782 0.024-0.39-0.049-0.655-0.247-0.89-0.28-0.332-0.628-0.375-1.717-0.207zM12.733 5.667c-0.014 0.037-0.111 0.331-0.215 0.652-0.325 0.972-0.512 2.091-0.512 3.253 0 0.363 0.018 0.722 0.054 1.076l-0.004-0.045c0.542 4.902 4.285 8.712 9.152 9.315 0.377 0.049 0.813 0.076 1.255 0.076 1.236 0 2.422-0.217 3.521-0.614l-0.072 0.023c0.334-0.116 0.616-0.201 0.625-0.192-0.066 0.218-0.137 0.401-0.221 0.578l0.011-0.025c-0.701 1.649-1.912 3.34-3.122 4.363-1.813 1.53-3.803 2.391-6.11 2.645-2.347 0.258-5.022-0.416-7.052-1.775-1.212-0.796-2.219-1.8-2.995-2.971l-0.024-0.038c-1.155-1.69-1.844-3.778-1.844-6.027 0-1.255 0.215-2.459 0.609-3.579l-0.023 0.075c1.053-3.047 3.338-5.432 6.243-6.597l0.073-0.026c0.643-0.256 0.689-0.268 0.652-0.169z"></path>
</symbol>
<symbol id="icon-sun" viewBox="0 0 32 32">
<path d="M15.511 0.724c-0.282 0.087-0.498 0.311-0.573 0.591l-0.001 0.006c-0.034 0.117-0.055 0.859-0.055 1.8 0 1.438 0.011 1.621 0.099 1.813 0.172 0.375 0.489 0.553 0.994 0.556 0.568 0.005 0.969-0.241 1.086-0.666 0.076-0.274 0.079-3.23 0.003-3.503-0.155-0.561-0.829-0.82-1.553-0.597zM5.44 4.92c-0.591 0.357-0.832 0.943-0.585 1.431 0.133 0.261 1.886 2.068 2.312 2.383 0.488 0.358 1 0.286 1.443-0.203 0.358-0.398 0.442-0.788 0.247-1.161-0.149-0.288-2.33-2.441-2.575-2.542-0.303-0.126-0.52-0.102-0.841 0.091zM25.662 4.853c-0.251 0.114-1.981 1.78-2.366 2.281-0.387 0.501-0.335 0.997 0.152 1.46 0.309 0.294 0.521 0.381 0.85 0.354 0.375-0.030 0.603-0.212 1.798-1.422 0.968-0.981 1.154-1.237 1.155-1.595 0.003-0.498-0.684-1.186-1.182-1.182-0.15 0.012-0.288 0.050-0.414 0.108l0.007-0.003zM14.773 8.503c-3.525 0.631-6.097 3.453-6.338 6.95-0.264 3.831 2.283 7.186 6.071 7.997 0.64 0.137 2.344 0.137 2.974 0.002 2.848-0.614 5.088-2.709 5.833-5.451 0.34-1.251 0.347-2.787 0.018-3.953-0.369-1.344-1.058-2.496-1.981-3.413l-0-0c-1.016-1.007-2.308-1.737-3.753-2.065l-0.052-0.010c-0.544-0.12-2.223-0.155-2.773-0.056zM17.173 10.801c1.831 0.449 3.275 1.778 3.877 3.502l0.012 0.038c0.367 1.082 0.328 2.533-0.099 3.579-0.49 1.214-1.369 2.186-2.481 2.78l-0.029 0.014c-0.484 0.267-1.049 0.459-1.649 0.543l-0.026 0.003c-0.233 0.036-0.502 0.057-0.775 0.057-1.88 0-3.533-0.972-4.483-2.442l-0.013-0.021c-0.307-0.491-0.553-1.060-0.707-1.665l-0.009-0.042c-0.136-0.587-0.136-1.708 0-2.293 0.511-2.15 2.251-3.783 4.42-4.13l0.031-0.004c0.416-0.066 1.51-0.020 1.931 0.081zM1.262 14.958c-0.271 0.085-0.477 0.303-0.541 0.577l-0.001 0.005c-0.213 0.718 0.044 1.37 0.602 1.524 0.273 0.076 3.229 0.073 3.503-0.003 0.418-0.116 0.669-0.515 0.669-1.061s-0.251-0.945-0.669-1.061c-0.326-0.091-3.301-0.075-3.563 0.018zM27.067 14.979c-0.378 0.175-0.555 0.491-0.558 0.995-0.005 0.578 0.242 0.972 0.683 1.091 0.154 0.041 0.754 0.055 1.864 0.044 1.434-0.014 1.658-0.027 1.806-0.108 0.381-0.207 0.571-0.757 0.456-1.307-0.073-0.355-0.189-0.53-0.443-0.68-0.169-0.101-0.29-0.108-1.886-0.12-1.571-0.014-1.725-0.006-1.92 0.085zM7.36 23.131c-0.262 0.123-2.359 2.226-2.501 2.507-0.19 0.378-0.139 0.684 0.19 1.123 0.174 0.232 0.634 0.491 0.87 0.491 0.389-0.002 0.623-0.177 1.739-1.295 0.638-0.638 1.122-1.167 1.189-1.301 0.203-0.404 0.128-0.782-0.238-1.187-0.37-0.408-0.835-0.533-1.25-0.337zM23.814 23.128c-0.281 0.17-0.51 0.399-0.673 0.672l-0.005 0.009c-0.163 0.317-0.116 0.69 0.13 1.024 0.299 0.405 2.123 2.178 2.373 2.306 0.407 0.207 0.815 0.11 1.213-0.288 0.376-0.375 0.48-0.745 0.32-1.132-0.101-0.245-2.254-2.426-2.542-2.575-0.124-0.062-0.27-0.098-0.424-0.098-0.142 0-0.276 0.030-0.397 0.085l0.006-0.002zM15.502 26.584c-0.256 0.083-0.455 0.278-0.542 0.526l-0.002 0.006c-0.072 0.187-0.081 0.471-0.067 1.899 0.015 1.566 0.023 1.69 0.123 1.859 0.149 0.254 0.325 0.37 0.68 0.443 0.55 0.116 1.1-0.075 1.307-0.456 0.081-0.148 0.094-0.372 0.108-1.806 0.018-1.812-0.003-1.987-0.277-2.261-0.277-0.277-0.876-0.372-1.33-0.21z"></path>
</symbol>
<symbol id="icon-close_menu" viewBox="0 0 32 32">
<path d="M23.734 10.304l-1.504-1.504-5.963 5.962-5.962-5.962-1.504 1.504 5.962 5.962-5.962 5.963 1.504 1.504 5.962-5.963 5.963 5.963 1.504-1.504-5.963-5.963 5.963-5.962z"></path>
</symbol>
<symbol id="icon-menu_btn" viewBox="0 0 32 32">
<path d="M6.4 11.734v-2.134h19.2v2.134h-19.2zM6.4 17.066h19.2v-2.133h-19.2v2.133zM6.4 22.4h19.2v-2.134h-19.2v2.134z"></path>
</symbol>
<symbol id="icon-heart" viewBox="0 0 32 32">
<path d="M9.334 4c-3.682 0-6.668 2.954-6.668 6.6 0 2.942 1.168 9.926 12.652 16.986 0.194 0.12 0.43 0.191 0.682 0.191s0.488-0.071 0.688-0.194l-0.006 0.003c11.484-7.060 12.652-14.044 12.652-16.986 0-3.646-2.986-6.6-6.668-6.6-3.68 0-6.666 4-6.666 4s-2.986-4-6.666-4z"></path>
</symbol>
</defs>
</svg>
